<svg xmlns="http://www.w3.org/2000/svg" xmlns:xlink="http://www.w3.org/1999/xlink" version="1.1" x="0px" y="0px" viewBox="0 0 48 60" enable-background="new 0 0 48 48" xml:space="preserve"><g><path d="M36.2,9.5l-2.4-0.5c-0.5-0.1-1.1,0.2-1.2,0.8c-0.1,0.5,0.2,1.1,0.8,1.2l2.4,0.5c0.1,0,0.1,0,0.2,0c0.5,0,0.9-0.3,1-0.8   C37,10.1,36.7,9.6,36.2,9.5z"/><path d="M15.8,10.3c0.4-0.4,0.4-1,0-1.4c-0.4-0.4-1-0.4-1.4,0l-1.8,1.8c-0.4,0.4-0.4,1,0,1.4c0.2,0.2,0.5,0.3,0.7,0.3   c0.3,0,0.5-0.1,0.7-0.3L15.8,10.3z"/><path d="M15.5,37.1l-1.8,1.8c-0.4,0.4-0.4,1,0,1.4c0.2,0.2,0.5,0.3,0.7,0.3c0.3,0,0.5-0.1,0.7-0.3l1.8-1.8c0.4-0.4,0.4-1,0-1.4   C16.6,36.7,15.9,36.7,15.5,37.1z"/><path d="M25.9,38.9l-1.8,1.8c-0.4,0.4-0.4,1,0,1.4c0.2,0.2,0.5,0.3,0.7,0.3c0.3,0,0.5-0.1,0.7-0.3l1.8-1.8c0.4-0.4,0.4-1,0-1.4   C27,38.5,26.3,38.5,25.9,38.9z"/><path d="M19.7,20.5l-2.5-0.3c-0.5-0.1-1,0.3-1.1,0.9c-0.1,0.5,0.3,1,0.9,1.1l2.5,0.3c0,0,0.1,0,0.1,0c0.5,0,0.9-0.4,1-0.9   C20.7,21.1,20.3,20.6,19.7,20.5z"/><path d="M32.9,20.5l-2.5-0.3c-0.5-0.1-1,0.3-1.1,0.9c-0.1,0.5,0.3,1,0.9,1.1l2.5,0.3c0,0,0.1,0,0.1,0c0.5,0,0.9-0.4,1-0.9   C33.8,21.1,33.4,20.6,32.9,20.5z"/><path d="M25.1,27.8c-0.4-0.4-1-0.4-1.4,0l-1.8,1.8c-0.4,0.4-0.4,1,0,1.4c0.2,0.2,0.5,0.3,0.7,0.3c0.3,0,0.5-0.1,0.7-0.3l1.8-1.8   C25.5,28.8,25.5,28.2,25.1,27.8z"/><path d="M24,0C12.8,0,3.8,5.6,3.8,12.4c0,2.8,1.5,5.5,4.3,7.7V47c0,0.6,0.4,1,1,1H39c0.6,0,1-0.4,1-1V20.1c2.8-2.2,4.3-4.9,4.3-7.7   C44.2,5.6,35.2,0,24,0z M38.4,18.8C38.1,19,38,19.3,38,19.6V46H10V19.6c0-0.3-0.2-0.6-0.4-0.8c-1.8-1.3-3.9-3.5-3.9-6.4   C5.8,6.7,13.9,2,24,2s18.2,4.7,18.2,10.4C42.2,15.3,40.1,17.5,38.4,18.8z"/></g>
</svg>