<svg xmlns="http://www.w3.org/2000/svg" xmlns:xlink="http://www.w3.org/1999/xlink" version="1.1" x="0px" y="0px" viewBox="0 0 48 60" enable-background="new 0 0 48 48" xml:space="preserve"><g><path d="M26.6,16.8c-0.5-0.3-1.1-0.1-1.4,0.4l-0.8,1.4c-0.3,0.5-0.1,1.1,0.4,1.4C25,20,25.2,20,25.4,20c0.3,0,0.7-0.2,0.9-0.5   l0.8-1.4C27.3,17.6,27.1,17,26.6,16.8z"/><path d="M23,17.5c-0.5-0.3-1.1-0.1-1.4,0.4l-0.8,1.4c-0.3,0.5-0.1,1.1,0.4,1.4c0.2,0.1,0.3,0.1,0.5,0.1c0.3,0,0.7-0.2,0.9-0.5   l0.8-1.4C23.7,18.3,23.5,17.7,23,17.5z"/><path d="M24.9,9.8C25,9.9,25.2,10,25.4,10c0.3,0,0.7-0.2,0.9-0.5L27,8.1c0.3-0.5,0.1-1.1-0.4-1.4c-0.5-0.3-1.1-0.1-1.4,0.4   l-0.8,1.4C24.2,9,24.4,9.6,24.9,9.8z"/><path d="M21.2,10.5c0.2,0.1,0.3,0.1,0.5,0.1c0.3,0,0.7-0.2,0.9-0.5l0.8-1.4c0.3-0.5,0.1-1.1-0.4-1.4c-0.5-0.3-1.1-0.1-1.4,0.4   l-0.8,1.4C20.6,9.7,20.8,10.3,21.2,10.5z"/><path d="M26.3,13.2c-0.3,0.5-0.1,1.1,0.4,1.4c0.2,0.1,0.3,0.1,0.5,0.1c0.3,0,0.7-0.2,0.9-0.5l0.8-1.4c0.3-0.5,0.1-1.1-0.4-1.4   c-0.5-0.3-1.1-0.1-1.4,0.4L26.3,13.2z"/><path d="M22.7,13.9c-0.3,0.5-0.1,1.1,0.4,1.4c0.2,0.1,0.3,0.1,0.5,0.1c0.3,0,0.7-0.2,0.9-0.5l0.8-1.4c0.3-0.5,0.1-1.1-0.4-1.4   c-0.5-0.3-1.1-0.1-1.4,0.4L22.7,13.9z"/><path d="M21.6,14.1c0.3-0.5,0.1-1.1-0.4-1.4c-0.5-0.3-1.1-0.1-1.4,0.4l-0.8,1.4c-0.3,0.5-0.1,1.1,0.4,1.4c0.2,0.1,0.3,0.1,0.5,0.1   c0.3,0,0.7-0.2,0.9-0.5L21.6,14.1z"/><path d="M37.9,14.2c0-0.3-0.1-0.5-0.3-0.7c-0.2-0.2-0.5-0.3-0.7-0.3c-1.5,0.1-3,0.6-4.4,1.5C31.4,5.8,28.1,0,24,0   c-4.1,0-7.5,6.2-8.5,15.4c-1.3-0.8-2.7-1.3-4.1-1.3l-0.3,0c-0.5,0-1,0.5-1,1c-0.1,10.6,2.7,20,7.3,24.6c1,1.1,2.2,1.8,3.4,2.3v5   c0,0.6,0.4,1,1,1h4.6c0.6,0,1-0.4,1-1v-5.4C33.3,38.4,37.8,27.4,37.9,14.2z M24,2c2.6,0,5.7,5.3,6.6,14.3c-3,3.1-5.5,8.3-6.8,14.7   c-1.2-6.2-3.5-11.3-6.5-14.2C18.2,7.5,21.3,2,24,2z M12.1,16.2c1.4,0.2,2.7,0.9,4,2.2c4,4,6.6,12.6,6.7,22.1   c-1.4-0.2-2.7-0.9-4-2.2C14.8,34.2,12.2,25.6,12.1,16.2z M25.3,46h-2.6v-3.5h0.7c0,0,0.1,0,0.1,0l0.3,0c0,0,0,0,0,0h1.5V46z    M24.9,40.4c0.3-9.8,3.2-18.8,7.5-22.9c0,0,0-0.1,0.1-0.1c1.1-1,2.2-1.7,3.4-2C35.5,28,30.7,38.9,24.9,40.4z"/></g>
</svg>