<svg xmlns="http://www.w3.org/2000/svg" xmlns:xlink="http://www.w3.org/1999/xlink" version="1.1" x="0px" y="0px" viewBox="0 0 100 125" enable-background="new 0 0 100 100" xml:space="preserve"><g><path d="M33.5,32c-0.2-1.4-1-2.5-1.6-3.4c-0.4-0.7-0.8-1.6-1.4-2.1c-1.4-1.1-4.6-2.1-6.5-1.7c-5,1-6.9,4.1-6.9,8.9   c0,1.2,0.1,2.4,0.4,3.6c0.3,1.1,0.7,2.2,1.3,3.1c0.5,0.8,1.3,1.4,2.1,1.9c0.6,0.3,1.1,0.6,1.7,0.9c0.8,0.4,1.9,0.7,2.8,0.7   c1.2,0,2.3-0.3,3.3-1c0.5-0.4,1.2-1,1.6-1.4c0.9-0.9,1.8-1.6,2.4-2.9c0.6-1.4,0.6-3.1,0.9-4.7C33.7,32.9,33.6,32.5,33.5,32z    M25.6,43.3c0,0-0.6-4-0.6-9c0-5,0.6-9,0.6-9s0.6,4,0.6,9C26.3,39.2,25.6,43.3,25.6,43.3z M50.4,26.3c-0.7-1.2-1.7-1.9-2.5-2.6   c-0.6-0.5-1.2-1.2-1.8-1.4c-1.4-0.5-4.1-0.4-5.3,0.6c-3.1,2.5-3.2,6-1.1,10.3c0.5,1.1,1.1,2.2,1.8,3.2c0.7,0.9,1.4,1.8,2.2,2.4   c0.7,0.5,1.5,0.8,2.2,1c0.5,0.1,1.1,0.2,1.6,0.2c0.7,0.1,1.6,0,2.3-0.3c0.9-0.4,1.5-1,1.9-2c0.2-0.5,0.4-1.3,0.5-1.8   c0.3-1.1,0.6-2,0.5-3.4c-0.2-1.5-0.9-3-1.4-4.5C50.9,27.1,50.6,26.7,50.4,26.3z M49.6,39.1c0,0-2.1-3.4-4.2-7.9   c-2.1-4.5-3.3-8.3-3.3-8.3s2.1,3.4,4.2,7.9C48.3,35.3,49.6,39.1,49.6,39.1z M68.6,75.6c0.6-1.2,0.6-2.5,0.7-3.5   c0.1-0.7,0.3-1.7,0.2-2.3c-0.4-1.5-2-3.6-3.5-4.1c-3.8-1.2-6.7,0.7-9.2,4.8c-0.6,1-1.2,2.1-1.6,3.3c-0.4,1.1-0.7,2.2-0.7,3.2   c0,0.9,0.1,1.7,0.4,2.4c0.2,0.5,0.4,1,0.7,1.4c0.4,0.7,0.9,1.3,1.5,1.7c0.8,0.5,1.7,0.7,2.7,0.4c0.5-0.1,1.3-0.4,1.8-0.5   c1.1-0.4,2-0.6,3.1-1.5c1.1-1,2-2.4,3-3.7C68.2,76.5,68.4,76.1,68.6,75.6z M57.5,82.1c0,0,1.7-3.7,4.2-7.9c2.6-4.2,5.1-7.4,5.1-7.4   s-1.7,3.7-4.2,7.9C60,78.9,57.5,82.1,57.5,82.1z M32.7,53.2c-3.4-3.8-7-3.9-11.2-1.5c-1,0.6-2,1.3-2.9,2.2c-0.8,0.8-1.6,1.7-2,2.7   c-0.4,0.9-0.5,1.8-0.5,2.7c0,0.6,0,1.3,0.1,1.9c0.1,0.9,0.4,2,0.8,2.8c0.6,1.1,1.4,1.8,2.6,2.3c0.6,0.2,1.4,0.5,2,0.7   c1.2,0.3,2.3,0.8,3.7,0.6c1.5-0.2,3-1,4.5-1.6c0.9-0.3,1.2-0.6,1.6-1c1.1-0.9,1.6-2.1,2.1-3.1c0.4-0.7,1-1.5,1.1-2.2   C34.8,57.9,34,54.6,32.7,53.2z M25.7,59.9c-4.3,2.5-8,4-8,4s3.1-2.6,7.4-5.1s8-4,8-4S30,57.3,25.7,59.9z M86.1,49.8   c-3.4-3.8-7-3.9-11.2-1.5c-1,0.6-2,1.3-2.9,2.2c-0.8,0.8-1.6,1.7-2,2.7c-0.4,0.9-0.5,1.8-0.5,2.7c0,0.6,0,1.3,0.1,1.9   c0.1,0.9,0.4,2,0.8,2.8c0.6,1.1,1.4,1.8,2.6,2.3c0.6,0.2,1.4,0.5,2,0.7c1.2,0.3,2.3,0.8,3.7,0.6c1.5-0.2,3-1,4.5-1.6   c0.9-0.3,1.2-0.6,1.6-1c1.1-0.9,1.6-2.1,2.1-3.1c0.4-0.7,1-1.5,1.1-2.2C88.2,54.5,87.4,51.3,86.1,49.8z M79.1,56.6   c-4.3,2.5-8,4-8,4s3.1-2.6,7.4-5.1s8-4,8-4S83.4,54,79.1,56.6z M48.7,46c-5,1-6.9,4.1-6.9,8.9c0,1.2,0.1,2.4,0.4,3.6   c0.3,1.1,0.7,2.2,1.3,3.1c0.5,0.8,1.3,1.4,2.1,1.9c0.6,0.3,1.1,0.6,1.7,0.9C48,64.7,49.1,65,50,65c1.2,0,2.3-0.3,3.3-1   c0.5-0.4,1.2-1,1.6-1.4c0.9-0.9,1.8-1.6,2.4-2.9c0.6-1.4,0.6-3.1,0.9-4.7c0.1-0.9,0.1-1.3,0-1.9c-0.2-1.4-1-2.5-1.6-3.4   c-0.4-0.7-0.8-1.6-1.4-2.1C53.8,46.6,50.6,45.7,48.7,46z M50.9,55.5c0,5-0.6,9-0.6,9s-0.6-4-0.6-9s0.6-9,0.6-9S50.9,50.5,50.9,55.5   z M63.5,26.3c-5,1-6.9,4.1-6.9,8.9c0,1.2,0.1,2.4,0.4,3.6c0.3,1.1,0.7,2.2,1.3,3.1c0.5,0.8,1.3,1.4,2.1,1.9   c0.6,0.3,1.1,0.6,1.7,0.9c0.8,0.4,1.9,0.7,2.8,0.7c1.2,0,2.3-0.3,3.3-1c0.5-0.4,1.2-1,1.6-1.4c0.9-0.9,1.8-1.6,2.4-2.9   c0.6-1.4,0.6-3.1,0.9-4.7c0.1-0.9,0.1-1.3,0-1.9c-0.2-1.4-1-2.5-1.6-3.4C71,29.4,70.6,28.5,70,28C68.6,26.9,65.5,25.9,63.5,26.3z    M65.7,35.8c0,5-0.6,9-0.6,9s-0.6-4-0.6-9c0-5,0.6-9,0.6-9S65.7,30.8,65.7,35.8z M45.5,72c-3.4-3.8-7-3.9-11.2-1.5   c-1,0.6-2,1.3-2.9,2.2c-0.8,0.8-1.6,1.7-2,2.7c-0.4,0.9-0.5,1.8-0.5,2.7c0,0.6,0,1.3,0.1,1.9c0.1,0.9,0.4,2,0.8,2.8   c0.6,1.1,1.4,1.8,2.6,2.3c0.6,0.2,1.4,0.5,2,0.7c1.2,0.3,2.3,0.8,3.7,0.6c1.5-0.2,3-1,4.5-1.6c0.9-0.3,1.2-0.6,1.6-1   c1.1-0.9,1.6-2.1,2.1-3.1c0.4-0.7,1-1.5,1.1-2.2C47.6,76.7,46.8,73.5,45.5,72z M38.5,78.8c-4.3,2.5-8,4-8,4s3.1-2.6,7.4-5.1   s8-4,8-4S42.8,76.2,38.5,78.8z"/></g></svg>