<svg xmlns="http://www.w3.org/2000/svg" xmlns:xlink="http://www.w3.org/1999/xlink" version="1.1" x="0px" y="0px" viewBox="0 0 48 60" enable-background="new 0 0 48 48" xml:space="preserve"><g><path d="M8.8,36.7H7.8c-0.6,0-1,0.4-1,1s0.4,1,1,1h0.9c0.6,0,1-0.4,1-1S9.3,36.7,8.8,36.7z"/><path d="M11.1,16h-0.9c-0.6,0-1,0.4-1,1s0.4,1,1,1h0.9c0.6,0,1-0.4,1-1S11.6,16,11.1,16z"/><path d="M16.7,34.1h0.9c0.6,0,1-0.4,1-1s-0.4-1-1-1h-0.9c-0.6,0-1,0.4-1,1S16.1,34.1,16.7,34.1z"/><path d="M18.9,17.7h0.9c0.6,0,1-0.4,1-1s-0.4-1-1-1h-0.9c-0.6,0-1,0.4-1,1S18.4,17.7,18.9,17.7z"/><path d="M13.9,9.9c0.6,0,1-0.4,1-1s-0.4-1-1-1H13c-0.6,0-1,0.4-1,1s0.4,1,1,1H13.9z"/><path d="M14.6,24.3c0.6,0,1-0.4,1-1s-0.4-1-1-1h-0.9c-0.6,0-1,0.4-1,1s0.4,1,1,1H14.6z"/><path d="M9.2,28.2H8.3c-0.6,0-1,0.4-1,1s0.4,1,1,1h0.9c0.6,0,1-0.4,1-1S9.8,28.2,9.2,28.2z"/><path d="M44.4,13.8c-1.3-1.3-2.7-2-4.1-2c-2.5,0-4.6,1.9-7.4,4.4c-1.8,1.6-3.7,3.3-6.1,4.9C26.2,9.3,19.1,0,10.5,0   C4.4,0,4.1,4.8,3.8,10.3c-0.2,3.6-0.4,7.7-2,12.1c-2.6,7.3-2.3,14.5,0.8,19c1.9,2.7,4.6,4.1,7.9,4.1c1.3,0,2.6-0.2,3.8-0.6   c2.3,2,5.3,3.1,8.9,3.1c5.7,0,12.1-2.9,17-7.8c4-4,6.7-9,7.6-13.9C48.6,21.2,47.4,16.8,44.4,13.8z M10.5,43.5   c-5.2-0.5-6.3-3.3-6.3-3.3C2,36,1.3,29.7,3.7,23.1c1.7-4.6,1.9-9.1,2.1-12.7C6.1,4.4,6.4,2,10.5,2c8,0,14.4,9.3,14.4,20.7   c0,0,0,0,0,0.1c0,0,0,0,0,0c0,0.2,0.7,12-8.6,18.9C16.1,42.2,11.9,43.6,10.5,43.5z M45.8,25.9c-0.8,4.5-3.3,9.1-7,12.8   C34.2,43.3,28.4,46,23.2,46c-2.6,0-5-0.7-6.8-2c0.2-0.1,0.3-0.2,0.5-0.3c0,0,0,0,0,0c1.5-0.9,2.8-2,4-3.3c0.1-0.1,0.1-0.1,0.2-0.2   c0.3-0.3,5.6-6,5.9-16.7c0,0,0,0,0,0c3-1.8,5.3-3.9,7.4-5.7c2.4-2.2,4.3-3.9,6-3.9c0.9,0,1.7,0.5,2.7,1.4   C45.5,17.7,46.5,21.5,45.8,25.9z"/><path d="M33.4,24.3c-0.4-0.4-1-0.4-1.4,0c-0.4,0.4-0.4,1,0,1.4l0.6,0.6c0.2,0.2,0.5,0.3,0.7,0.3c0.3,0,0.5-0.1,0.7-0.3   c0.4-0.4,0.4-1,0-1.4L33.4,24.3z"/><path d="M27,39.5c-0.4-0.4-1-0.4-1.4,0c-0.4,0.4-0.4,1,0,1.4l0.6,0.6c0.2,0.2,0.5,0.3,0.7,0.3c0.3,0,0.5-0.1,0.7-0.3   c0.4-0.4,0.4-1,0-1.4L27,39.5z"/><path d="M39.5,30c-0.4-0.4-1-0.4-1.4,0c-0.4,0.4-0.4,1,0,1.4l0.6,0.6c0.2,0.2,0.5,0.3,0.7,0.3c0.3,0,0.5-0.1,0.7-0.3   c0.4-0.4,0.4-1,0-1.4L39.5,30z"/><path d="M40.8,20.8c-0.4-0.4-1-0.4-1.4,0c-0.4,0.4-0.4,1,0,1.4l0.6,0.6c0.2,0.2,0.5,0.3,0.7,0.3c0.3,0,0.5-0.1,0.7-0.3   c0.4-0.4,0.4-1,0-1.4L40.8,20.8z"/><path d="M31.6,30.9c-0.4-0.4-1-0.4-1.4,0c-0.4,0.4-0.4,1,0,1.4l0.6,0.6c0.2,0.2,0.5,0.3,0.7,0.3c0.3,0,0.5-0.1,0.7-0.3   c0.4-0.4,0.4-1,0-1.4L31.6,30.9z"/></g></svg>