<svg xmlns:dc="http://purl.org/dc/elements/1.1/" xmlns:cc="http://creativecommons.org/ns#" xmlns:rdf="http://www.w3.org/1999/02/22-rdf-syntax-ns#" xmlns:svg="http://www.w3.org/2000/svg" xmlns="http://www.w3.org/2000/svg" xmlns:sodipodi="http://sodipodi.sourceforge.net/DTD/sodipodi-0.dtd" xmlns:inkscape="http://www.inkscape.org/namespaces/inkscape" version="1.1" x="0px" y="0px" viewBox="0 0 99.999998 124.9999975" xml:space="preserve"><path style="text-indent:0;text-transform:none;direction:ltr;block-progression:tb;baseline-shift:baseline;color:#000000;enable-background:accumulate;" d="m 37.988403,21.000286 a 1.9973666,1.9990368 0 0 0 -1.747521,2.842096 l 7.177318,16.178086 -26.337638,0 a 1.9973666,1.9990368 0 0 0 -0.187235,0 1.9973666,1.9990368 0 0 0 -1.809932,1.998837 c 0,14.725483 8.63909,27.423489 21.001458,32.980809 l -27.9915422,0 a 1.9973666,1.9990368 0 0 0 -0.1872344,0 1.99936,2.0010318 0 1 0 0.1872344,3.997674 l 83.8810102,0 a 1.9973666,1.9990368 0 1 0 0,-3.997674 l -27.991543,0 C 76.345145,69.442794 84.984236,56.744788 84.984236,42.019305 A 1.9973666,1.9990368 0 0 0 82.98707,40.020468 l -27.242605,0 -7.895051,-17.802141 a 1.9973666,1.9990368 0 0 0 -1.872344,-1.218041 1.9973666,1.9990368 0 0 0 -1.747521,2.842096 l 7.177319,16.178086 -3.651071,0 -7.89505,-17.802141 a 1.9973666,1.9990368 0 0 0 -1.872344,-1.218041 z m -18.72344,23.017856 61.537705,0 c -1.014982,16.761516 -14.341537,29.982554 -30.768852,29.982554 -16.427317,0 -29.753871,-13.221038 -30.768853,-29.982554 z" fill="#000000" fill-opacity="1" stroke="none" marker="none" visibility="visible" display="inline" overflow="visible"/></svg>