<svg xmlns="http://www.w3.org/2000/svg" xmlns:xlink="http://www.w3.org/1999/xlink" version="1.1" x="0px" y="0px" viewBox="0 0 48 60" enable-background="new 0 0 48 48" xml:space="preserve"><g><path d="M32.3,18.5c-1.2,0-2.4,0.2-3.6,0.6c0.4-1.1,0.6-2.3,0.6-3.5c0-2.8-1.1-5.4-3.1-7.3c-0.4-0.4-1-0.4-1.4,0   c-1.9,2-3,4.6-3,7.4c0,2.8,1.1,5.4,3.1,7.3c0,0,0,0,0,0c0,0,0,0,0,0c0,0,0,0,0,0c0,0,0,0,0,0c2,1.9,4.5,2.9,7.2,2.9   c2.8,0,5.5-1.1,7.4-3.1c0.4-0.4,0.4-1,0-1.4C37.6,19.6,35,18.5,32.3,18.5z M25.5,10.6c1.2,1.5,1.8,3.2,1.8,5.1   c0,1.9-0.6,3.7-1.7,5.1c-1.2-1.5-1.8-3.2-1.8-5.1C23.8,13.9,24.4,12.1,25.5,10.6z M32.2,24.1c-1.8,0-3.6-0.6-5.1-1.7   c1.5-1.2,3.3-1.8,5.2-1.8c1.8,0,3.6,0.6,5.1,1.7C35.9,23.4,34.1,24.1,32.2,24.1z"/><path d="M25.7,25.3c-1.2,0-2.5,0.2-3.6,0.6c1.3-3.7,0.4-7.9-2.5-10.8c-0.2-0.2-0.5-0.3-0.7-0.3c-0.3,0-0.5,0.1-0.7,0.3   c-1.9,2-3,4.6-3,7.4c0,2.8,1.1,5.4,3.1,7.3c0,0,0,0,0,0c0,0,0,0,0,0c0,0,0,0,0,0c0,0,0,0,0,0c2,1.9,4.5,3,7.2,3   c2.8,0,5.5-1.1,7.4-3.1c0.2-0.2,0.3-0.4,0.3-0.7c0-0.3-0.1-0.5-0.3-0.7C31,26.3,28.5,25.3,25.7,25.3z M18.9,17.3   c2.4,3,2.4,7.2,0.1,10.3c-1.1-1.5-1.8-3.2-1.8-5.1C17.2,20.6,17.8,18.8,18.9,17.3z M25.6,30.8c-1.8,0-3.6-0.6-5.1-1.7   c1.5-1.2,3.3-1.8,5.2-1.8c1.9,0,3.6,0.6,5.1,1.7C29.3,30.1,27.5,30.8,25.6,30.8z"/><path d="M19.1,32c-1.2,0-2.4,0.2-3.6,0.6c0.4-1.1,0.6-2.3,0.6-3.5c0-2.8-1.1-5.4-3.1-7.3c-0.4-0.4-1-0.4-1.4,0c-1.9,2-3,4.6-3,7.4   c0,2.8,1.1,5.3,3.1,7.3c0,0,0,0,0,0c0,0,0,0,0,0c0,0,0,0,0,0c0,0,0,0,0,0c2,1.9,4.5,2.9,7.3,2.9c2.8,0,5.5-1.1,7.4-3.1   c0.2-0.2,0.3-0.4,0.3-0.7c0-0.3-0.1-0.5-0.3-0.7C24.5,33,21.9,32,19.1,32z M12.3,24c1.2,1.5,1.8,3.2,1.8,5.1c0,1.9-0.6,3.7-1.7,5.1   c-1.1-1.5-1.8-3.2-1.8-5.1C10.6,27.3,11.2,25.5,12.3,24z M19,37.5c-1.9,0-3.6-0.6-5.1-1.7c1.5-1.2,3.3-1.8,5.2-1.8   c1.8,0,3.6,0.6,5.1,1.7C22.7,36.8,20.9,37.5,19,37.5z"/><path d="M12.6,38.7c-1.2,0-2.4,0.2-3.6,0.6c0.4-1.1,0.6-2.3,0.6-3.5c0-2.8-1.1-5.4-3.1-7.3c-0.4-0.4-1-0.4-1.4,0   c-3.7,3.8-3.9,9.8-0.7,13.8c-0.7,0.6-2.2,2-4.1,4c-0.4,0.4-0.4,1,0,1.4C0.5,47.9,0.7,48,1,48c0.3,0,0.5-0.1,0.7-0.3   c2-2.1,3.5-3.4,4.1-3.9c1.9,1.6,4.2,2.4,6.6,2.4c2.8,0,5.5-1.1,7.4-3.1c0.4-0.4,0.4-1,0-1.4C17.9,39.7,15.3,38.7,12.6,38.7z    M5.8,30.7c1.1,1.5,1.8,3.2,1.8,5.1c0,1.9-0.6,3.7-1.7,5.1C3.5,38,3.5,33.8,5.8,30.7z M12.4,44.2c-1.8,0-3.6-0.6-5.1-1.7   c1.5-1.2,3.3-1.8,5.2-1.8c1.8,0,3.6,0.6,5.1,1.7C16.2,43.5,14.4,44.2,12.4,44.2z"/><path d="M31.7,10.7c0.3,0,0.5-0.1,0.7-0.3l8.7-8.7c0.4-0.4,0.4-1,0-1.4c-0.4-0.4-1-0.4-1.4,0L31,9c-0.4,0.4-0.4,1,0,1.4   C31.2,10.6,31.5,10.7,31.7,10.7z"/><path d="M32,16c0.2,0.2,0.5,0.3,0.7,0.3s0.5-0.1,0.7-0.3L46.8,2.7c0.4-0.4,0.4-1,0-1.4c-0.4-0.4-1-0.4-1.4,0L32,14.6   C31.6,15,31.6,15.6,32,16z"/><path d="M47.7,6.9c-0.4-0.4-1-0.4-1.4,0l-8.7,8.7c-0.4,0.4-0.4,1,0,1.4c0.2,0.2,0.5,0.3,0.7,0.3c0.3,0,0.5-0.1,0.7-0.3l8.7-8.7   C48.1,7.9,48.1,7.3,47.7,6.9z"/></g></svg>